<svg id="Component_5_3" data-name="Component 5 – 3" xmlns="http://www.w3.org/2000/svg" width="145.381" height="136.988" viewBox="0 0 145.381 136.988">
  <path id="Path_25" data-name="Path 25" d="M53.678,52.4l3.438.168-.057,1.168-.828-.041.625,3.35,1.438-4.42,1.188.059.884,4.576,1.1-3.3-.807-.039.058-1.178,2.558.125-.058,1.2-.743-.037-1.635,5.162L58.948,59.1l-.623-3.377-1.064,3.3-1.836-.09-1.03-5.3L53.62,53.6Z" transform="translate(54.794 71.531)" fill="#fff"/>
  <g id="Group_5" data-name="Group 5">
    <path id="Path_26" data-name="Path 26" d="M135.036,26.918c.368-1.825,2.594-19.305,2.594-19.305l1.86.171c-.012.32-8.93,103-8.93,103.262.7.65,1.387.841,1.852,1.517,1.024,1.5,1.934,3.113,2.886,4.686.423.706,1.149,1.884,1.572,2.614.239-.7,7.083-23.285,9.13-59.154,1.807-33.267.944-53.029.944-53.029l2.017.23s.388,34.955-.88,52.442c-3.108,42.884-9.929,61.712-9.929,61.712s.791,1.962.032,3.24a5.847,5.847,0,0,1-1.916,2.158c-.38.171-.817.129-.948-.305-.081-.266.171-.745.36-1.051.2-.323.553-.516.739-.848a2.208,2.208,0,0,0-.177-2.243c-.549-1.026-3.689-7.785-5.62-9.209-.376-.63-5.326-.45-6.849-.523-1.608-.076-74.32-1.679-76.508-1.713-1.7-.024-3.406-.142-5.11-.2-1.449-.051-2.9-.061-4.356-.12-1.155-.046-2.307-.166-3.462-.205-.58-.017-.763.259-.876,1-.068.454-.2.9-.276,1.346-.157.86-.324,1.715-.445,2.583-.205,1.466-.986,1.842-2.027,1.031a20.6,20.6,0,0,0-3.54-2.438c-.407-.2-.717-.7-1.069-1.06-.376-.381-.751-.762-1.183-1.2a1.931,1.931,0,0,0-.054.32c.123,1.207.244,2.419.372,3.626.139,1.271.28,2.544.433,3.814.24,1.984.509,3.975.729,5.964.68,3.3,15.027,12.241,16.575,13.153.485.291.992.525,1.487.782.551.286.874.841.723,1.231-.366,2.68-17.382-9.116-19.626-12.574-.06-.1-.2-.139-.221-.239a3.714,3.714,0,0,1-.892-2.688c-.143-1.818-.429-3.616-.646-5.424-.185-1.566-.34-3.135-.533-4.7-.205-1.617-.449-3.23-.656-4.85a3.014,3.014,0,0,1,.052-.682,10.344,10.344,0,0,0-.109-1.288,5.388,5.388,0,0,0-.445-1.178c-.215-.435-.483-.836-.7-1.2-.5.347-1.041.757-1.606,1.1a1.578,1.578,0,0,1-.725.085c-.179.01-.386-.076-.541,0-.932.464-1.5-.171-2.091-.9-.519-.635-1.137-1.156-1.663-1.781-.857-1.016-1.685-2.07-2.506-3.13-.735-.943-1.429-1.938-2.172-2.883-.859-1.1-1.751-2.16-2.627-3.24-.068-.081-.169-.205-.157-.291.1-.906-.509-1.359-.823-2a4.231,4.231,0,0,1-.614-2.158c.034-.7-.213-1.417-.193-2.118a10.747,10.747,0,0,1,.338-2.329,17.711,17.711,0,0,0,.386-3.059,8.034,8.034,0,0,0-.779.467,1.059,1.059,0,0,0-.38.435c-.119.376-.05.841-.423,1.1-.05.034.034.364.06.555a5.2,5.2,0,0,1,.1.8c-.012.349-.153.472-.421.21-.173-.166-.431-.244-.554-.445a2.453,2.453,0,0,1-.209-.816c-.068-.386-.125-.782-.161-1.178a2.545,2.545,0,0,1,.831-2.128c.384-.384.288-.7.072-1.131a1.377,1.377,0,0,1-.141-.865,4.99,4.99,0,0,1,1.614-2.91A8.747,8.747,0,0,0,7.5,76.01a.243.243,0,0,0-.028-.325,7.9,7.9,0,0,1-.411-.872c-.36-1.095-.7-2.192-1.035-3.294a1.987,1.987,0,0,1-.1-.755c.1-.963.244-1.923.336-2.891a3.052,3.052,0,0,1,.507-1.451c.394-.586.666-1.288,1.059-1.874.183-.283.525-.41.8-.616.111-.083.217-.178.332-.254a7.829,7.829,0,0,1,.9-.545,8.692,8.692,0,0,1,1-.342,2.622,2.622,0,0,1,1.387-.02,3.743,3.743,0,0,1,2.323,1.173,8.92,8.92,0,0,1,1.755,3.213,4.543,4.543,0,0,0,.7,1.4,2.253,2.253,0,0,1,.2,2.377,1.853,1.853,0,0,0-.151,1.268c.169,1.285.729,2.539.35,3.895-.085.3-.2.582-.284.8a10.981,10.981,0,0,1,1.822.689,11.75,11.75,0,0,1,1.542,1.258,2.178,2.178,0,0,0,.527.435,5.157,5.157,0,0,1,2.643,2.578c.223.413.594.711.855,1.1a51.233,51.233,0,0,0,4.587,5.564,8.709,8.709,0,0,1,1.56,2.377,4.536,4.536,0,0,1-.076,1.928c-.022.2-.2.362-.286.552-.215.464-.121.836.278,1.031a13.489,13.489,0,0,0,1.842.836c1.467.481,2.945.906,4.424,1.332a11.184,11.184,0,0,0,1.1.215c.115.02.25.066.346.015,1.252-.655,2.25.11,3.14.968a7.934,7.934,0,0,0,2.1,1.293,3.154,3.154,0,0,1,1.087.784,6.645,6.645,0,0,1,.608,1.473c.553.125,1.306.264,2.043.479,1.481.428,2.953.892,4.428,1.349a.748.748,0,0,1,.231.11,5.252,5.252,0,0,0,1.854,1.041,9.931,9.931,0,0,1,1.974,1.075,7.742,7.742,0,0,0,.767.342c.491-1.632,2.142.054,1.8,1.271a8.408,8.408,0,0,1,2.286,2.084c.608.831,19.978.647,19.978.647.046-.332.06-.552.111-.762.272-1.249.578-2.495.831-3.755.354-1.747.7-3.506,1-5.268a8.017,8.017,0,0,1,2.027-4.076,3.346,3.346,0,0,1,.964-.665c.8-.41,1.632-.738,2.425-1.173a7.86,7.86,0,0,1,3.687-1.036,1.868,1.868,0,0,1,.847.286,9.951,9.951,0,0,1,.966.684c.066-.545.121-.97.175-1.4.1-.833.209-1.674.32-2.509.008-.056.091-.1.107-.156a.462.462,0,0,0,.012-.254,3.422,3.422,0,0,1,.272-2.5,4.525,4.525,0,0,1,1.035-1.385,3.373,3.373,0,0,1,2.7-1.141,4.127,4.127,0,0,1,1.19.32c.187.064.354.215.543.269.527.147,1.061.257,1.59.4a2.9,2.9,0,0,1,.662.23,2.428,2.428,0,0,1,.833.542,9.942,9.942,0,0,1,.793,1.337c.336-2.1,2.133-.777,1.805,1.412-.646,4.3-1.32,8.586-1.977,12.881-.362,2.333-.7,4.677-1.061,7.008-.046.31-.085.569.266.611.789.1,1.574.2,2.369.3.3-1.725.59-3.306.835-4.9.3-1.908.543-3.826.827-5.742.358-2.385.735-4.772,1.1-7.157.549-3.58,4.929-32.934,5.316-35.468.419-2.773,7.608-48.9,7.608-48.9H122.4s-6.044,41.628-6.348,43.8c.187-.247,4.668-7.206,10.186-22.472,7.455-21.333,6.038-21.409,6.038-21.409h1.759a121.262,121.262,0,0,1-6.225,22.543c-4.466,13.363-12.545,26.98-12.586,27.161-.175.792-7.652,50.661-7.958,52.823l9.977.342m1.981-.085c.316.054,7.819.435,9.494.56.384.029,6.221-74.386,6.221-74.386M102.3,96.483c-.042-.015-.085-.034-.127-.049a9.72,9.72,0,0,1-.509.99,1.163,1.163,0,0,0,.24,1.718C102.031,98.245,102.166,97.365,102.3,96.483Z" transform="translate(-3.635 -7.613)" fill="#fff" fill-rule="evenodd"/>
    <path id="Path_27" data-name="Path 27" d="M63.378,62.059c-1.068,2.474-1.856,3.267-2.042,3.328a2.748,2.748,0,0,1-2.165-.5c-.218-.156-.211-.381,0-.645.132-.17.3-.18.5-.051a2.567,2.567,0,0,0,.465.254c.845.4,1.449-.477,2.178-2.164.961-1.778,3.1-10.3,3.208-10.564.134-.324.471-.278.659.023C66.487,52.242,63.669,61.365,63.378,62.059Z" transform="translate(69.516 71.531)" fill="#fff" fill-rule="evenodd"/>
    <path id="Path_28" data-name="Path 28" d="M49.737,61.153c-.632.41-2.151,1.449-2.256,1.513a1.7,1.7,0,0,1-1.6.107c-.738-.289-.88-1.364-1.232-1.877-.268-.391-1.049-.391-1.456-.2-.484.156-1.206,1.625-1.419,1.76-.349.219-1.674.756-2.158-.041-.348-.463-.694-.928-1.047-1.4-.434.263-1.157.866-1.6.529-.3-.231.278-.832.478-1.035a1.531,1.531,0,0,1,.894-.4c.287-.048.394.219.521.377.259.325.431.717.693,1.039.2.241.406.522.8.457a1.521,1.521,0,0,0,.907-.433c.365-.387.641-.831,1.017-1.223a2.3,2.3,0,0,1,2.614-.234c.332.349.51,1.148,1.074,1.767a.728.728,0,0,0,.827.125,27.055,27.055,0,0,1,2.812-1.791C50.019,60.13,50.362,60.8,49.737,61.153Z" transform="translate(37.565 71.531)" fill="#fff" fill-rule="evenodd"/>
    <path id="Path_29" data-name="Path 29" d="M65.122,62.374a5.256,5.256,0,0,0,1.242-.165c.244-.064.488-.135.735-.184a.409.409,0,0,1,.453.2c.106.158.283.271.39.431a.877.877,0,0,1-.241,1.307.4.4,0,0,1-.32.019c-.051-.021-.065-.173-.066-.265,0-.194-.1-.785-.186-.807-.106-.029-.675.308-1.275.4-.689.091-.735-.337-1.023-.429-.1.059-1.041.978-1.562.752-.193-.194-.276-.414-.054-.557,2.575-2.446,4.5-5.506,4.844-6.946.131-.258.219-.386.5-.32a.408.408,0,0,1,.289.588c-.3.645-.59,1.3-.927,1.926-.283.527-.615,1.029-.948,1.527C66.432,60.67,65.153,62.313,65.122,62.374Z" transform="translate(69.516 71.531)" fill="#fff" fill-rule="evenodd"/>
    <path id="Path_30" data-name="Path 30" d="M29.458,61.8c.482.085,3.8-1.826,4.147-1.916.438-.111,1.1-.561,1.757-.221a.743.743,0,0,1,.256,1.242c-.19.266-.334.668-.725.69-.312-.178.329-.881-.265-1.163-.652-.139-3.848,1.844-4.24,1.995-.777.418-1.416.123-1.965-.986-.608-.04-1.118.535-1.659.833-.308.172-.845.389-1,.175-.372-.8,1.425-1.456,2.351-1.878.5-.226,1.048-.514,1.293-.114C29.534,60.726,28.878,61.329,29.458,61.8Z" transform="translate(22.372 71.531)" fill="#fff" fill-rule="evenodd"/>
    <path id="Path_31" data-name="Path 31" d="M58.355,64.264c-.281.172-.414.174-.681-.139-.327-.379-.61-.8-.91-1.2a1.157,1.157,0,0,1-.542-.045c-.3-.137-.592-.307-.886-.461-.02.014-.037.027-.056.043a2.307,2.307,0,0,1,.242.879c-.122.26-.241.5-.545.582-.265.074-.544.152-.756-.076-.312-.421.1-1.358.037-1.395a6.548,6.548,0,0,0-.9-.34c-.08-.017-.2-.039-.222-.092-.03-.08-.006-.265.025-.273.335-.08.593-.389.962-.348a12.124,12.124,0,0,0,1.221.164,1.767,1.767,0,0,1,1.213.586c.074.067.366.51.533.371a.2.2,0,0,1,.314.032,6.088,6.088,0,0,0,.724.793A.668.668,0,0,1,58.355,64.264Z" transform="translate(50.476 71.531)" fill="#fff" fill-rule="evenodd"/>
    <path id="Path_32" data-name="Path 32" d="M51.325,60.041a1.637,1.637,0,0,1,.635-.182c.233.02.361.465.386.414.455.22.922-.266,1.228.006.194.338-.1.874-.708.862a.329.329,0,0,1-.408-.266c-.039-.139-.1-.193-.272-.139-.318.1-.871.287-1.129.068A.6.6,0,0,1,51.325,60.041Z" transform="translate(46.147 71.531)" fill="#fff" fill-rule="evenodd"/>
    <path id="Path_33" data-name="Path 33" d="M52.623,43.954c-.066.361-.132.72-.2,1.087a.427.427,0,0,1-.119-.7,3.756,3.756,0,0,0,.252-.4Z" transform="translate(45.829 43.052)" fill="#121a50" fill-rule="evenodd"/>
  </g>
  <path id="Path_34" data-name="Path 34" d="M136.535,111.117c.733.656,1.478.766,1.966,1.443,1.073,1.5,2.026,3.116,3.02,4.691.443.707.87,1.433,1.313,2.165M35.8,111.041c-.6-.02-.8.259-.915,1-.074.455-.2.9-.291,1.348-.162.861-.337,1.715-.466,2.585-.213,1.465-1.031,1.844-2.122,1.032-1.2-.9-4.456-3.146-4.827-3.5-.392-.382-.786-.766-1.239-1.2a1.855,1.855,0,0,0-.057.32c.131,1.208,1.376,11.428,1.608,13.419.192,2.5,10.539,9.092,12.514,10.371,1.572,1.018,3.223,1.883,4.841,2.8.508.291,1.039.526,1.558.783.578.286.917.841.759,1.233-.873,2.187-15.979-8.571-16.765-9.258q-1.9-1.655-3.79-3.329c-.08-.073-.207-.139-.23-.24-.242-.927-1.385-6.311-1.61-8.123-.194-1.565-.358-3.138-.561-4.7-.215-1.622-.468-3.236-.685-4.855a3.025,3.025,0,0,1,.051-.682,8.931,8.931,0,0,0-.112-1.289,5.243,5.243,0,0,0-.464-1.179c-.226-.435-.506-.837-.738-1.206-.527.35-1.088.761-1.68,1.1a1.764,1.764,0,0,1-.759.086c-.19.01-.4-.076-.567,0-.976.462-1.572-.171-2.192-.9-.542-.636-1.189-1.157-1.741-1.783-.9-1.018-1.764-2.072-2.624-3.133-.767-.947-1.5-1.94-2.272-2.886-.9-1.1-1.834-2.165-2.751-3.243-.074-.081-.177-.205-.169-.291.112-.907-.531-1.362-.858-2.006A4.1,4.1,0,0,1,6,91.14c.034-.7-.223-1.419-.2-2.121a10.222,10.222,0,0,1,.354-2.333,16.743,16.743,0,0,0,.4-3.06,8.774,8.774,0,0,0-.816.467,1.029,1.029,0,0,0-.4.435c-.126.377-.053.839-.443,1.1-.053.034.036.362.061.555a4.732,4.732,0,0,1,.105.8c-.015.347-.16.472-.441.21-.183-.169-.453-.245-.582-.445a2.468,2.468,0,0,1-.221-.817c-.067-.386-.126-.783-.164-1.179a2.5,2.5,0,0,1,.868-2.133c.4-.382.3-.7.076-1.13a1.352,1.352,0,0,1-.148-.866A4.945,4.945,0,0,1,6.15,77.707a8.866,8.866,0,0,0,1.543-1.739.238.238,0,0,0-.027-.325,7.455,7.455,0,0,1-.432-.876q-.563-1.64-1.081-3.295a1.91,1.91,0,0,1-.112-.756c.1-.964.257-1.925.354-2.894a2.92,2.92,0,0,1,.531-1.453c.411-.587.7-1.289,1.1-1.879a3.226,3.226,0,0,1,.837-.616c.118-.081.228-.176.35-.252a8.1,8.1,0,0,1,.94-.545,8.758,8.758,0,0,1,1.05-.342,2.876,2.876,0,0,1,1.454-.02,3.988,3.988,0,0,1,2.432,1.174,8.851,8.851,0,0,1,1.838,3.217,4.388,4.388,0,0,0,.733,1.4,2.173,2.173,0,0,1,.2,2.38,1.793,1.793,0,0,0-.156,1.269c.177,1.284.763,2.541.367,3.9-.089.3-.215.582-.3.8a11.824,11.824,0,0,1,1.907.687A12.3,12.3,0,0,1,21.3,78.805a2.4,2.4,0,0,0,.554.435,5.29,5.29,0,0,1,2.765,2.578c.236.416.62.712.9,1.1a52.388,52.388,0,0,0,4.806,5.572,8.813,8.813,0,0,1,1.633,2.378,5.919,5.919,0,0,1-.382,2.485.685.685,0,0,0,.291,1.032,14.6,14.6,0,0,0,1.931.837c1.534.482,3.084.907,4.631,1.333a6.632,6.632,0,0,0,1.515.227c1.313-.653,2.359.11,3.29.971a8.348,8.348,0,0,0,2.2,1.294,3.3,3.3,0,0,1,1.138.783,6.531,6.531,0,0,1,.634,1.477c.582.125,1.37.262,2.141.477,1.549.43,3.09.9,4.635,1.353a.715.715,0,0,1,.24.11,5.639,5.639,0,0,0,1.943,1.042,10.635,10.635,0,0,1,2.07,1.074,7.732,7.732,0,0,0,.8.345S90.433,8.5,90.714,7.641l1.625.306s-31.064,97.816-31.426,99.034a12.657,12.657,0,0,1,2.928,2.492l20.39.245c.048-.335-.051.21,0,0,.287-1.25.721-3.261.986-4.523.369-1.749.727-3.512,1.045-5.274a7.881,7.881,0,0,1,2.12-4.08,3.523,3.523,0,0,1,1.012-.665c.839-.411,1.707-.739,2.54-1.174a8.5,8.5,0,0,1,3.859-1.037,1.97,1.97,0,0,1,.887.286,10.365,10.365,0,0,1,1.012.682c.072-.543.129-.969.183-1.4.11-.837.219-1.676.337-2.512.006-.059.093-.1.11-.159a.436.436,0,0,0,.015-.252,3.288,3.288,0,0,1,.282-2.5,4.613,4.613,0,0,1,1.085-1.384,3.6,3.6,0,0,1,2.829-1.142,4.392,4.392,0,0,1,1.248.32c.2.061.371.215.567.267.552.149,1.113.259,1.667.4a3.159,3.159,0,0,1,.693.227,2.6,2.6,0,0,1,.873.545,10.07,10.07,0,0,1,.828,1.338c.352-2.1,2.831-17.452,3.13-19.343.175-1.108-1.144,20.172-1.237,20.757-.677,4.3-1.383,8.6-2.074,12.893-.375,2.336.82,7.83,1.652,7.93.31-1.727.618-3.309.875-4.9.308-1.913.565-3.833.866-5.748.375-2.387.769-4.777,1.151-7.167q.86-5.371,1.716-10.748c.62-3.919,1.227-7.839,1.846-11.758.282-1.79.594-3.579.868-5.374.388-2.537.729-5.088,1.134-7.624.438-2.776,2.211.548,2.169.731-.183.793-.365,1.595-.485,2.4-.3,2.06-.544,4.129-.87,6.176-.483,3.053-1.031,6.093-1.526,9.146-.611,3.816-1.187,7.639-1.787,11.455-.373,2.37-.761,4.74-1.142,7.115-.234,1.441-.478,2.884-.7,4.327q-.379,2.436-.74,4.882c-.32,2.16-1.2,7.566-1.2,7.566m12.235.169c.329.051,8.186.435,9.942.558M106.964,96.463c-.044-.015-.086-.034-.133-.049a9.542,9.542,0,0,1-.533.988,1.133,1.133,0,0,0,.251,1.72C106.688,98.224,106.827,97.346,106.964,96.463Z" transform="translate(-3.635 -7.613)" fill="#fff" fill-rule="evenodd"/>
  <path id="Path_35" data-name="Path 35" d="M53.5,39.577,59.239,7.641h.842L54.3,40.421Z" transform="translate(51.928 -7.613)" fill="#fff" fill-rule="evenodd"/>
</svg>
