<svg xmlns="http://www.w3.org/2000/svg" width="313.859" height="62.935" viewBox="0 0 313.859 62.935">
  <g id="Group_12" data-name="Group 12" transform="translate(-394 -608.415)">
    <g id="HSFWordmark" transform="translate(508.622 621.264)">
      <path id="Path_1" data-name="Path 1" d="M8.28,26.8V9.84H11.7v6.671h6.737V9.84H21.86V26.8H18.439V19.38H11.728V26.8Z" transform="translate(-8.056 -9.532)" fill="#4b2e83"/>
      <path id="Path_2" data-name="Path 2" d="M22.332,9.84h3.434v9.211a20.225,20.225,0,0,0,.079,2.842A2.737,2.737,0,0,0,26.9,23.565a3.645,3.645,0,0,0,2.263.632,3.5,3.5,0,0,0,2.2-.592,2.316,2.316,0,0,0,.882-1.461,18.2,18.2,0,0,0,.184-2.882V9.84h3.421v8.908a22.987,22.987,0,0,1-.276,4.316,4.632,4.632,0,0,1-1.026,2.119,5.119,5.119,0,0,1-2,1.382,8.343,8.343,0,0,1-3.25.526,9.461,9.461,0,0,1-3.684-.566,5.119,5.119,0,0,1-1.987-1.461,4.658,4.658,0,0,1-.947-1.855,20.357,20.357,0,0,1-.342-4.3Z" transform="translate(-3.62 -9.532)" fill="#4b2e83"/>
      <path id="Path_3" data-name="Path 3" d="M35.77,21.343l3.329-.316a4.092,4.092,0,0,0,1.224,2.461,3.684,3.684,0,0,0,2.487.79,3.869,3.869,0,0,0,2.474-.7,2.119,2.119,0,0,0,.855-1.619,1.566,1.566,0,0,0-.355-1.026,2.763,2.763,0,0,0-1.237-.724c-.395-.145-1.316-.395-2.737-.75a9.408,9.408,0,0,1-3.869-1.671,4.4,4.4,0,0,1-1.553-3.408,4.329,4.329,0,0,1,.737-2.434,4.566,4.566,0,0,1,2.105-1.711,8.487,8.487,0,0,1,3.342-.592,7.145,7.145,0,0,1,4.8,1.408,4.9,4.9,0,0,1,1.7,3.724l-3.421.158a2.9,2.9,0,0,0-.947-1.882,3.421,3.421,0,0,0-2.171-.566,3.948,3.948,0,0,0-2.329.605,1.224,1.224,0,0,0-.54,1.053,1.316,1.316,0,0,0,.5,1.026A8.724,8.724,0,0,0,43.31,16.3a16.62,16.62,0,0,1,3.7,1.224,4.737,4.737,0,0,1,1.869,1.724,4.948,4.948,0,0,1,.684,2.632,5.04,5.04,0,0,1-.816,2.737,4.842,4.842,0,0,1-2.29,1.882,9.408,9.408,0,0,1-3.684.618,7.343,7.343,0,0,1-4.935-1.474,6.461,6.461,0,0,1-2.066-4.3Z" transform="translate(0.627 -9.6)" fill="#4b2e83"/>
      <path id="Path_4" data-name="Path 4" d="M49.55,26.8V9.84h3.421v7.527L59.893,9.84H64.5l-6.382,6.579,6.724,10.356H60.419l-4.671-7.961-2.777,2.829v5.132Z" transform="translate(4.98 -9.532)" fill="#4b2e83"/>
      <path id="Path_5" data-name="Path 5" d="M68.5,26.8V19.656L62.26,9.84h4.013l3.948,6.711L74.169,9.84h3.948l-6.237,9.843V26.8Z" transform="translate(8.995 -9.532)" fill="#4b2e83"/>
      <path id="Path_6" data-name="Path 6" d="M81.78,21.349l3.329-.316a4.013,4.013,0,0,0,1.224,2.461,3.645,3.645,0,0,0,2.474.79,3.948,3.948,0,0,0,2.5-.7,2.105,2.105,0,0,0,.829-1.619,1.632,1.632,0,0,0-.342-1.026,2.842,2.842,0,0,0-1.237-.724c-.408-.145-1.316-.395-2.737-.75A9.211,9.211,0,0,1,83.951,17.8a4.448,4.448,0,0,1-.829-5.843,4.592,4.592,0,0,1,2.119-1.711,8.487,8.487,0,0,1,3.408-.618,7.172,7.172,0,0,1,4.8,1.408,4.934,4.934,0,0,1,1.7,3.724l-3.434.158a2.948,2.948,0,0,0-.934-1.882,3.474,3.474,0,0,0-2.171-.566,3.948,3.948,0,0,0-2.342.605,1.29,1.29,0,0,0-.026,2.079,8.619,8.619,0,0,0,3.145,1.132,16.857,16.857,0,0,1,3.7,1.224,4.829,4.829,0,0,1,1.869,1.724,5.382,5.382,0,0,1-.132,5.435,4.843,4.843,0,0,1-2.29,1.882,9.461,9.461,0,0,1-3.684.618A7.408,7.408,0,0,1,83.9,25.691a6.5,6.5,0,0,1-2.119-4.342Z" transform="translate(15.161 -9.606)" fill="#4b2e83"/>
      <path id="Path_7" data-name="Path 7" d="M111.224,26.8H107.5l-1.474-3.856H99.2L97.881,26.8H94.21L100.789,9.84h3.671Zm-6.3-6.711-2.329-6.29-2.29,6.29Z" transform="translate(19.087 -9.532)" fill="#4b2e83"/>
      <path id="Path_8" data-name="Path 8" d="M109.52,26.8V9.84h3.421V26.8Z" transform="translate(23.923 -9.532)" fill="#4b2e83"/>
      <path id="Path_9" data-name="Path 9" d="M115.75,26.751V10h3.434V23.9h8.5v2.855Z" transform="translate(25.891 -9.482)" fill="#4b2e83"/>
      <path id="Path_10" data-name="Path 10" d="M127.68,26.8V9.84H131.1V26.8Z" transform="translate(29.66 -9.532)" fill="#4b2e83"/>
      <path id="Path_11" data-name="Path 11" d="M133.87,26.8V9.84H137.2l6.935,11.33V9.84h3.184V26.8h-3.434l-6.843-11.067V26.8Z" transform="translate(31.615 -9.532)" fill="#4b2e83"/>
      <path id="Path_12" data-name="Path 12" d="M155.948,20.635V17.766h7.382v6.816a9.211,9.211,0,0,1-3.119,1.829,11.356,11.356,0,0,1-4.145.8,9.409,9.409,0,0,1-4.645-1.118,7.119,7.119,0,0,1-2.961-3.2,10.171,10.171,0,0,1-1-4.513,9.842,9.842,0,0,1,1.105-4.711,7.606,7.606,0,0,1,3.25-3.158,8.948,8.948,0,0,1,4.066-.842,8.119,8.119,0,0,1,4.935,1.316,5.922,5.922,0,0,1,2.276,3.658l-3.4.632a3.618,3.618,0,0,0-1.316-1.974,4.158,4.158,0,0,0-2.474-.711,4.632,4.632,0,0,0-3.566,1.421,5.987,5.987,0,0,0-1.316,4.211,6.684,6.684,0,0,0,1.316,4.54,4.487,4.487,0,0,0,3.513,1.5,5.724,5.724,0,0,0,2.158-.421,6.934,6.934,0,0,0,1.855-1.026V20.635Z" transform="translate(35.907 -9.589)" fill="#4b2e83"/>
      <path id="Path_13" data-name="Path 13" d="M8.11,40.889V27.73h8.9V29.3H9.86v4.053h6.185V34.9H9.86v6Z" transform="translate(-8.11 -3.881)" fill="#85754d"/>
      <path id="Path_14" data-name="Path 14" d="M22.873,34.531a7.185,7.185,0,0,1,1.763-5.145,6,6,0,0,1,4.553-1.855,6.329,6.329,0,0,1,3.29.868,5.724,5.724,0,0,1,2.237,2.382,7.9,7.9,0,0,1,.763,3.54,7.764,7.764,0,0,1-.8,3.592,5.527,5.527,0,0,1-2.29,2.395,6.658,6.658,0,0,1-3.211.816,6.224,6.224,0,0,1-3.329-.908,5.8,5.8,0,0,1-2.224-2.448A7.487,7.487,0,0,1,22.873,34.531Zm1.8,0a5.263,5.263,0,0,0,1.316,3.75,4.487,4.487,0,0,0,6.461,0,5.632,5.632,0,0,0,1.316-3.948,6.659,6.659,0,0,0-.553-2.8,4.185,4.185,0,0,0-1.592-1.869A4.329,4.329,0,0,0,29.281,29a4.461,4.461,0,0,0-3.2,1.316,5.711,5.711,0,0,0-1.408,4.237Z" transform="translate(-3.451 -3.945)" fill="#85754d"/>
      <path id="Path_15" data-name="Path 15" d="M49.494,27.7h1.737v7.619a8.935,8.935,0,0,1-.447,3.158,3.842,3.842,0,0,1-1.619,1.908,5.79,5.79,0,0,1-3.079.737,6.277,6.277,0,0,1-3.04-.645,3.7,3.7,0,0,1-1.684-1.855,9.014,9.014,0,0,1-.5-3.316V27.7h1.75v7.619a7.448,7.448,0,0,0,.316,2.526,2.487,2.487,0,0,0,1.092,1.316,3.947,3.947,0,0,0,1.908.434,3.605,3.605,0,0,0,2.737-.974,4.974,4.974,0,0,0,.829-3.355Z" transform="translate(2.233 -3.891)" fill="#85754d"/>
      <path id="Path_16" data-name="Path 16" d="M57.62,40.9V27.739h1.816L66.357,38.1V27.7h1.671V40.859H66.213L59.291,30.49V40.859Z" transform="translate(7.529 -3.891)" fill="#85754d"/>
      <path id="Path_17" data-name="Path 17" d="M74.42,40.89V27.731h4.54a10.527,10.527,0,0,1,2.342.2,4.316,4.316,0,0,1,1.934.947,5.264,5.264,0,0,1,1.566,2.25,8.882,8.882,0,0,1,.513,3.132,9.512,9.512,0,0,1-.342,2.632,6.369,6.369,0,0,1-.908,1.921,4.7,4.7,0,0,1-1.2,1.2,5.106,5.106,0,0,1-1.579.671,9.211,9.211,0,0,1-2.119.224Zm1.737-1.566h2.816a7.079,7.079,0,0,0,2.053-.237A3.053,3.053,0,0,0,82.21,38.4a4.119,4.119,0,0,0,.961-1.671,7.9,7.9,0,0,0,.355-2.54,6.224,6.224,0,0,0-.684-3.184,3.369,3.369,0,0,0-1.658-1.487,7.014,7.014,0,0,0-2.25-.263H76.157Z" transform="translate(12.836 -3.882)" fill="#85754d"/>
      <path id="Path_18" data-name="Path 18" d="M90.11,40.9l5.119-13.2H97.11l5.4,13.159h-2.013l-1.54-3.948H93.4l-1.447,3.948Zm3.8-5.421h4.461l-1.316-3.645c-.421-1.118-.737-2.026-.934-2.737a17.488,17.488,0,0,1-.711,2.513Z" transform="translate(17.792 -3.891)" fill="#85754d"/>
      <path id="Path_19" data-name="Path 19" d="M109.772,40.9V29.266H105.43V27.7h10.448v1.566h-4.356V40.9Z" transform="translate(22.631 -3.891)" fill="#85754d"/>
      <path id="Path_20" data-name="Path 20" d="M121.64,40.889V27.73h1.79V40.889Z" transform="translate(27.752 -3.881)" fill="#85754d"/>
      <path id="Path_21" data-name="Path 21" d="M131.583,34.531a7.119,7.119,0,0,1,1.763-5.145,5.974,5.974,0,0,1,4.54-1.855,6.382,6.382,0,0,1,3.3.868,5.724,5.724,0,0,1,2.237,2.434,7.9,7.9,0,0,1,.763,3.54,7.605,7.605,0,0,1-.816,3.592,5.527,5.527,0,0,1-2.29,2.395,6.579,6.579,0,0,1-3.2.816,6.2,6.2,0,0,1-3.329-.908,5.724,5.724,0,0,1-2.224-2.448A7.488,7.488,0,0,1,131.583,34.531Zm1.79,0a5.263,5.263,0,0,0,1.316,3.75,4.487,4.487,0,0,0,6.461,0,5.632,5.632,0,0,0,1.316-3.948,6.659,6.659,0,0,0-.54-2.8,4.263,4.263,0,0,0-1.592-1.869A4.382,4.382,0,0,0,137.978,29a4.434,4.434,0,0,0-3.184,1.316,5.658,5.658,0,0,0-1.421,4.237Z" transform="translate(30.888 -3.945)" fill="#85754d"/>
      <path id="Path_22" data-name="Path 22" d="M149.53,40.9V27.739h1.79L158.254,38.1V27.7h1.671V40.859h-1.79L151.214,30.49V40.859Z" transform="translate(36.561 -3.891)" fill="#85754d"/>
    </g>
    <g id="Logomark_Group" data-name="Logomark Group" transform="translate(394 608.415)">
      <path id="Path_43" data-name="Path 43" d="M106.348,79.93l3.7.179-.058,1.256-.89-.045.673,3.607,1.55-4.76,1.275.064.954,4.926,1.179-3.549-.871-.045.064-1.268,2.755.135-.058,1.294-.8-.038-1.762,5.56-2.037-.1-.666-3.639L110.21,87.06l-1.979-.1-1.108-5.714-.833-.032Z" transform="translate(-49.952 -31.034)" fill="#33006f"/>
      <path id="Path_44" data-name="Path 44" d="M95.35,13.239c.207-.81,1.439-8.6,1.439-8.6l1.039.078c0,.143-4.97,45.9-4.97,46.022.386.285.773.369,1.033.648.566.648,1.073,1.386,1.605,2.086.233.317.666.842.873,1.166.133-.311,3.944-10.364,5.076-26.363a212.588,212.588,0,0,0,.526-23.63l1.126.1s.213,15.546-.493,23.371c-1.725,19.109-5.522,27.5-5.522,27.5a1.579,1.579,0,0,1,0,1.444,3.03,3.03,0,0,1-1.066.985c-.213.078-.46.058-.526-.136s.093-.33.2-.466.306-.233.406-.382a.824.824,0,0,0-.08-1.023c-.306-.46-2.058-3.472-3.131-4.107-.206-.279-2.964-.2-3.81-.227s-41.348-.751-42.568-.764c-.946,0-1.9-.065-2.845-.091-.793.006-1.605.006-2.411.006-.666,0-1.279-.078-1.925-.091-.32,0-.426.11-.486.44-.04.207-.107.4-.153.6-.087.382-.18.764-.246,1.153-.113.648-.553.816-1.132.46a11.776,11.776,0,0,0-1.965-1.088,2.692,2.692,0,0,1-.6-.473l-.666-.538a1.038,1.038,0,0,0,0,.143c.067.538.133,1.082.207,1.619l.22,1.658c.133.887.286,1.775.406,2.662.38,1.47,8.36,5.454,9.226,5.83.266.13.546.24.826.35s.486.376.4.551c-.2,1.192-9.673-4.061-10.918-5.6,0-.045-.107-.065-.127-.11-.46-.648-.42-.466-.493-1.192s-.24-1.613-.36-2.423c-.1-.693-.187-1.4-.3-2.092s-.246-1.438-.36-2.157a1.039,1.039,0,0,1,0-.3,3.668,3.668,0,0,0-.06-.576,2.231,2.231,0,0,0-.246-.525c-.12-.194-.273-.376-.393-.538-.28.155-.58.337-.893.492a1.149,1.149,0,0,1-.4.039.987.987,0,0,0-.306,0c-.52.207-.833-.078-1.159-.4s-.666-.512-.926-.79c-.48-.453-.939-.926-1.4-1.4s-.793-.862-1.206-1.3-.973-.965-1.459-1.444c-.04,0-.093-.091-.087-.13.053-.4-.286-.609-.46-.894a1.572,1.572,0,0,1-.34-.959c0-.311-.12-.648-.113-.946a3.91,3.91,0,0,1,.193-1.036,6.613,6.613,0,0,0,.24-1.3c-.167.078-.306.136-.433.207a.56.56,0,0,0-.213.194c-.067.168,0,.376-.233.492v.246a1.647,1.647,0,0,1,.053.356c0,.155-.087.207-.233.091s-.24-.11-.306-.194a.94.94,0,0,1-.12-.363,5.171,5.171,0,0,0-.087-.531,1.035,1.035,0,0,1,.52-.972c.213-.168.16-.311.04-.505a.475.475,0,0,1-.073-.382,2.175,2.175,0,0,1,.893-1.3,3.949,3.949,0,0,0,.819-.771.089.089,0,0,0,0-.143,3.286,3.286,0,0,1-.226-.389c-.2-.492-.393-.978-.58-1.47a.632.632,0,0,1-.053-.337c.053-.428.133-.855.187-1.3a1.162,1.162,0,0,1,.28-.648c.22-.259.373-.57.593-.836a1.719,1.719,0,0,1,.44-.272,1.747,1.747,0,0,1,.187-.11,3.954,3.954,0,0,1,.5-.246c.18-.065.373-.1.56-.155a1.938,1.938,0,0,1,.773,0,2.34,2.34,0,0,1,1.292.525,3.809,3.809,0,0,1,.973,1.432,1.933,1.933,0,0,0,.393.648.843.843,0,0,1,.107,1.062.683.683,0,0,0-.087.564,3.361,3.361,0,0,1,.2,1.736,3.83,3.83,0,0,1-.16.356,7.3,7.3,0,0,1,1.013.3,6.5,6.5,0,0,1,.859.564,1.335,1.335,0,0,0,.293.194A2.706,2.706,0,0,1,33.4,37.723a5.518,5.518,0,0,0,.473.492A25.278,25.278,0,0,0,36.421,40.7a4.058,4.058,0,0,1,.873,1.056c.113.227,0,.57-.047.862,0,.084-.107.162-.16.246a.279.279,0,0,0-.054.271.29.29,0,0,0,.208.189,8.819,8.819,0,0,0,1.026.369c.819.22,1.639.408,2.465.6.2.045.406.065.613.1a.493.493,0,0,0,.193,0,1.657,1.657,0,0,1,1.745.434,4.615,4.615,0,0,0,1.166.57,1.911,1.911,0,0,1,.606.35,2.924,2.924,0,0,1,.34.648c.306.052.726.117,1.132.214.826.188,1.645.4,2.465.6a.271.271,0,0,1,.127.045,3.227,3.227,0,0,0,1.033.466,5.641,5.641,0,0,1,1.1.479c.133.058.273.1.426.149.273-.725,1.192,0,1,.57a4.416,4.416,0,0,1,1.272.926c.34.369,11.118.291,11.118.291a.6.6,0,0,1,.06-.343c.153-.557.32-1.114.466-1.671.193-.777.386-1.568.553-2.351a3.36,3.36,0,0,1,1.126-1.814,1.967,1.967,0,0,1,.54-.3c.446-.181.906-.33,1.332-.525a5.25,5.25,0,0,1,2.052-.46,1.225,1.225,0,0,1,.473.13,5,5,0,0,1,.54.3,4.609,4.609,0,0,1,.093-.648l.18-1.121s.053-.045.06-.071a.158.158,0,0,0,0-.11,1.265,1.265,0,0,1,.16-1.069,2.116,2.116,0,0,1,.573-.648,2.143,2.143,0,0,1,1.506-.505,2.675,2.675,0,0,1,.666.143c.107,0,.2.1.306.117.293.071.586.117.879.181a2.426,2.426,0,0,1,.373.1,1.472,1.472,0,0,1,.46.246,4.387,4.387,0,0,1,.446.6c.187-.939,1.186-.35,1,.648-.36,1.943-.733,3.828-1.1,5.739-.2,1.043-.386,2.086-.586,3.122,0,.142-.047.253.147.272l1.332.136c.167-.771.326-1.47.466-2.183.16-.849.3-1.7.46-2.591.2-1.062.406-2.125.606-3.193.306-1.593,2.745-14.671,2.958-15.805.233-1.237,4.237-21.79,4.237-21.79h.913S85.011,23.214,84.8,24.185c.107-.11,2.6-3.239,5.669-10.014C94.623,4.662,93.8,4.63,93.8,4.63h.979a45.456,45.456,0,0,1-3.431,10.085,70.961,70.961,0,0,1-7,12.1c-.093.356-4.257,22.58-4.423,23.546l5.549.149m1.1,0c.18,0,4.35.188,5.283.246.213,0,3.464-33.152,3.464-33.152M77.137,44.246H77.07a3.371,3.371,0,0,1-.286.44.459.459,0,0,0-.143.417.469.469,0,0,0,.277.348Z" transform="translate(-22.216 -4.63)" fill="#33006f" fill-rule="evenodd"/>
      <path id="Path_45" data-name="Path 45" d="M120.051,89.8c-1.147,2.665-2,3.517-2.2,3.581a2.953,2.953,0,0,1-2.332-.532c-.237-.173-.231-.41,0-.7a.359.359,0,0,1,.538-.051,2.7,2.7,0,0,0,.5.269c.916.429,1.563-.512,2.351-2.325,1.031-1.922,3.338-11.1,3.453-11.377a.4.4,0,0,1,.711,0C123.4,79.231,120.365,89.051,120.051,89.8Z" transform="translate(-52.582 -30.502)" fill="#33006f" fill-rule="evenodd"/>
      <path id="Path_46" data-name="Path 46" d="M92,93.824c-.679.442-2.319,1.557-2.428,1.627a1.832,1.832,0,0,1-1.73.115c-.794-.314-.948-1.467-1.326-2.018-.288-.423-1.127-.423-1.569-.218s-1.281,1.749-1.525,1.922c-.378.231-1.806.814-2.325-.045l-1.115-1.531c-.468.282-1.281.929-1.717.57-.327-.25.3-.9.512-1.115a1.608,1.608,0,0,1,.961-.429c.314-.058.429.231.564.4.282.346.461.769.749,1.121s.436.557.865.487a1.614,1.614,0,0,0,.974-.461c.4-.416.692-.9,1.1-1.32a2.474,2.474,0,0,1,2.819-.25c.352.372.544,1.236,1.153,1.922a.788.788,0,0,0,.89.135,27.79,27.79,0,0,1,3.03-1.922C92.3,92.723,92.675,93.446,92,93.824Z" transform="translate(-40.578 -35.499)" fill="#33006f" fill-rule="evenodd"/>
      <path id="Path_47" data-name="Path 47" d="M124.388,92.718a5.543,5.543,0,0,0,1.339-.179c.263-.07.525-.141.794-.2a.448.448,0,0,1,.487.218c.115.173.3.295.416.468a.948.948,0,0,1-.256,1.409.429.429,0,0,1-.346,0c-.058,0-.07-.186-.07-.288,0-.205-.109-.846-.2-.865a13.831,13.831,0,0,1-1.377.436c-.647.109-.788-.365-1.1-.461-.109.058-1.121,1.051-1.678.807-.211-.211-.3-.448-.058-.6,2.774-2.633,4.837-5.926,5.214-7.476.141-.282.237-.416.538-.346a.442.442,0,0,1,.314.641c-.327.692-.641,1.4-1,2.069A16.289,16.289,0,0,1,126.387,90C125.8,90.88,124.426,92.654,124.388,92.718Z" transform="translate(-55.043 -33.08)" fill="#33006f" fill-rule="evenodd"/>
      <path id="Path_48" data-name="Path 48" d="M63.4,94.355c.519.09,4.093-1.967,4.484-2.063.474-.122,1.185-.641,1.922-.237a.8.8,0,0,1,.211,1.339c-.2.282-.359.717-.775.737-.34-.192.352-.948-.288-1.249-.7-.147-4.145,1.986-4.567,2.146-.833.455-1.525.135-2.114-1.063-.641-.038-1.2.577-1.787.9-.333.186-.91.416-1.083.186-.4-.865,1.537-1.569,2.53-2.024.538-.243,1.134-.551,1.4-.122C63.481,93.2,62.77,93.849,63.4,94.355Z" transform="translate(-34.456 -35.338)" fill="#33006f" fill-rule="evenodd"/>
      <path id="Path_49" data-name="Path 49" d="M111.093,98.16c-.307.179-.448.186-.737-.154s-.641-.858-.98-1.281a1.281,1.281,0,0,1-.583-.051c-.327-.147-.641-.327-.954-.493l-.058.045a2.563,2.563,0,0,1,.263.948,1.01,1.01,0,0,1-.589.641c-.327.1-.589.16-.814-.083-.34-.455.1-1.461.038-1.5a7.437,7.437,0,0,0-.967-.372c-.083,0-.218-.038-.237-.1a1.485,1.485,0,0,1,0-.295c.365-.083.641-.416,1.038-.372s.878.167,1.281.173a1.877,1.877,0,0,1,1.281.641c.077.07.4.544.577.4s.237-.077.34,0a6.605,6.605,0,0,0,.775.858.717.717,0,0,1,.327.993Z" transform="translate(-49.84 -36.484)" fill="#33006f" fill-rule="evenodd"/>
      <path id="Path_50" data-name="Path 50" d="M102.24,92.669a1.71,1.71,0,0,1,.685-.2c.25,0,.384.5.41.448.493.237,1-.288,1.326,0,.211.359-.109.942-.762.929a.359.359,0,0,1-.442-.288c-.038-.147-.109-.211-.288-.147-.346.109-.942.307-1.217.07A.641.641,0,0,1,102.24,92.669Z" transform="translate(-48.741 -35.541)" fill="#33006f" fill-rule="evenodd"/>
      <path id="Path_51" data-name="Path 51" d="M104.339,65.719c-.07.391-.141.775-.211,1.172a.461.461,0,0,1-.128-.756,4.956,4.956,0,0,0,.269-.436Z" transform="translate(-49.457 -26.157)" fill="#33006f" fill-rule="evenodd"/>
      <path id="Path_52" data-name="Path 52" d="M93.127,50.758c.388.291.789.337,1.05.648.568.648,1.076,1.386,1.611,2.086.234.317.461.648.669.965M39.408,50.72c-.321,0-.428.117-.488.447-.04.2-.107.4-.154.6-.087.382-.181.764-.247,1.147-.114.648-.548.823-1.13.46s-2.38-1.4-2.574-1.555l-.669-.538a.731.731,0,0,0-.033.143c.074.538.735,5.085.856,5.972.107,1.114,5.623,4.048,6.686,4.619.836.453,1.712.836,2.581,1.244.267.13.555.233.829.35s.488.376.4.551c-.461.972-8.518-3.815-8.939-4.126-.669-.486-1.337-.985-2.006-1.477-.04,0-.107-.065-.12-.11-.134-.415-.742-2.811-.862-3.614-.1-.7-.187-1.4-.294-2.092s-.254-1.438-.368-2.163a1.08,1.08,0,0,1,0-.3,3.487,3.487,0,0,0-.06-.57,2.228,2.228,0,0,0-.247-.525,6.037,6.037,0,0,0-.394-.538c-.281.155-.582.337-.9.486a1.02,1.02,0,0,1-.4.039H30.57c-.515.207-.836-.078-1.163-.4s-.635-.512-.929-.8c-.481-.447-.943-.92-1.4-1.393s-.8-.862-1.217-1.3-.976-.965-1.464-1.444c-.04-.039-.094-.091-.094-.13.06-.408-.281-.609-.455-.894a1.568,1.568,0,0,1-.341-.959c0-.311-.12-.648-.107-.946a3.729,3.729,0,0,1,.2-1.036,6.461,6.461,0,0,0,.214-1.36,4.466,4.466,0,0,0-.435.207.562.562,0,0,0-.214.194c-.067.168,0,.376-.234.492v.246a1.585,1.585,0,0,1,.053.356c0,.149-.087.207-.234.091s-.241-.11-.308-.2a.9.9,0,0,1-.12-.363c-.033-.168-.067-.35-.087-.525a1.028,1.028,0,0,1,.508-.939c.214-.175.16-.317.04-.505a.5.5,0,0,1-.074-.382,2.155,2.155,0,0,1,.9-1.3,4.374,4.374,0,0,0,.829-.771.1.1,0,0,0,0-.149,3.742,3.742,0,0,1-.227-.389c-.2-.486-.394-.972-.575-1.464a.75.75,0,0,1-.06-.337c.053-.428.134-.855.187-1.3a1.2,1.2,0,0,1,.281-.648c.221-.259.374-.577.6-.836a1.726,1.726,0,0,1,.441-.272l.187-.117a5.048,5.048,0,0,1,.5-.24,5.524,5.524,0,0,1,.562-.155,1.841,1.841,0,0,1,.776,0,2.3,2.3,0,0,1,1.3.525,3.808,3.808,0,0,1,.976,1.432,1.976,1.976,0,0,0,.394.648.835.835,0,0,1,.107,1.056.693.693,0,0,0-.08.57c.094.57.4,1.127.194,1.736a3.827,3.827,0,0,1-.16.356,6.557,6.557,0,0,1,1.016.3,6.523,6.523,0,0,1,.862.564,1.339,1.339,0,0,0,.294.194,2.661,2.661,0,0,1,1.437,1.114,6.565,6.565,0,0,0,.475.492,25.327,25.327,0,0,0,2.561,2.481,3.912,3.912,0,0,1,.876,1.056,2.243,2.243,0,0,1-.207,1.108.278.278,0,0,0-.055.271.291.291,0,0,0,.208.189,8.871,8.871,0,0,0,1.03.369c.822.214,1.645.408,2.474.6a4.774,4.774,0,0,0,.809.1,1.674,1.674,0,0,1,1.752.428,4.657,4.657,0,0,0,1.17.577,1.8,1.8,0,0,1,.608.35,2.671,2.671,0,0,1,.341.648c.308.052.729.117,1.137.207.829.194,1.651.4,2.474.6a.367.367,0,0,1,.127.052,3.232,3.232,0,0,0,1.036.46,6.114,6.114,0,0,1,1.1.479,3.627,3.627,0,0,0,.428.155L68.691,4.69l.856.136S52.993,48.375,52.833,48.938A6.551,6.551,0,0,1,54.4,50.052l10.871.1h0c.154-.557.388-1.451.528-2.015.194-.777.388-1.561.555-2.345a3.358,3.358,0,0,1,1.13-1.814,2.084,2.084,0,0,1,.542-.3c.448-.181.909-.33,1.337-.525a5.231,5.231,0,0,1,2.052-.46,1.233,1.233,0,0,1,.475.13,5.02,5.02,0,0,1,.542.3,3.775,3.775,0,0,1,.1-.648c.053-.369.114-.745.174-1.114,0,0,.054-.045.06-.071a.176.176,0,0,0,0-.117,1.222,1.222,0,0,1,.154-1.114,2.182,2.182,0,0,1,.575-.615A2.135,2.135,0,0,1,75,38.95a2.747,2.747,0,0,1,.669.143c.1,0,.194.091.3.117.294.065.588.117.889.175a2.186,2.186,0,0,1,.368.1,1.459,1.459,0,0,1,.468.246,4.282,4.282,0,0,1,.441.589c.187-.933,1.5-7.773,1.665-8.609.094-.492-.608,8.978-.669,9.243-.361,1.911-.742,3.822-1.11,5.739-.2,1.036.441,3.485.883,3.53.167-.771.328-1.477.468-2.183.16-.855.3-1.71.461-2.591.2-1.062.408-2.131.615-3.193q.455-2.39.916-4.787c.328-1.742.669-3.485.983-5.234.147-.8.314-1.593.461-2.39.207-1.127.388-2.267.608-3.394.227-1.237,1.177.246,1.15.324-.094.356-.194.713-.254,1.069-.16.92-.294,1.84-.468,2.753-.254,1.36-.548,2.714-.809,4.068-.328,1.7-.669,3.4-.956,5.1-.2,1.056-.408,2.105-.608,3.168-.127.648-.254,1.3-.374,1.943s-.267,1.451-.394,2.176c-.174.959-.669,3.368-.669,3.368m6.519.071c.181,0,4.372.194,5.308.253M77.356,44.229h-.067a3.87,3.87,0,0,1-.287.44.458.458,0,0,0-.144.417.469.469,0,0,0,.278.348C77.209,45.013,77.282,44.624,77.356,44.229Z" transform="translate(-22.224 -4.652)" fill="#33006f" fill-rule="evenodd"/>
      <path id="Path_53" data-name="Path 53" d="M106.09,39.084,112.265,4.69h.91l-6.233,35.3Z" transform="translate(-50.002 -4.652)" fill="#33006f" fill-rule="evenodd"/>
    </g>
  </g>
</svg>
